<svg width="48" height="48" viewBox="0 0 48 48" fill="none" xmlns="http://www.w3.org/2000/svg">
<circle cx="24" cy="24" r="23" stroke="#2D3440" stroke-width="2"/>
<path d="M33.3243 26.4851C32.9175 17.4097 25.0094 8.62095 24.6569 8.23883C24.6569 8.23883 24.6569 8.23883 24.6117 8.23883L24.5033 8.11464L24.3858 8.03821H23.8796L23.7079 8H23.6627L23.5 8.11464L23.4006 8.20061C23.4006 8.20061 23.4006 8.20061 23.3554 8.20061C23.003 8.62095 15.0948 17.4193 14.67 26.4851C14.6655 26.5518 14.6655 26.6189 14.67 26.6857C14.67 27.0296 14.67 27.3735 14.67 27.7269C15.0134 37.5665 23.7079 39.9739 23.7802 39.993H24.0062C24.0812 40.0023 24.1571 40.0023 24.2321 39.993C24.3135 39.993 32.9989 37.5188 33.3333 27.7269C33.3333 27.3735 33.3333 27.0296 33.3333 26.6857C33.3333 26.6188 33.3243 26.5519 33.3243 26.4851ZM17.056 23.132C18.8612 24.772 20.9023 26.0974 23.1024 27.0582V31.4049C20.8881 30.2489 17.4808 28.195 16.4776 26.3895C16.559 25.2871 16.7436 24.1959 17.0289 23.132H17.056ZM18.8636 18.2599C20.0457 19.5651 21.496 20.5653 23.1024 21.1831V24.947C21.083 24.0461 19.2431 22.7496 17.6796 21.1258C18.0234 20.1479 18.4187 19.1912 18.8636 18.2599ZM30.3508 21.1258C28.788 22.7505 26.9479 24.0471 24.928 24.947V21.1831C26.5214 20.5601 27.9589 19.5602 29.1307 18.2599C29.5866 19.1779 29.9939 20.1219 30.3508 21.0876V21.1258ZM24.928 19.1579V11.5155C26.1359 13.0813 27.2383 14.7348 28.2269 16.464C27.3552 17.6354 26.2129 18.55 24.91 19.1197L24.928 19.1579ZM24.928 31.424V27.0582C27.1364 26.106 29.1868 24.787 31.0015 23.1511C31.2784 24.219 31.454 25.3135 31.5257 26.4182C30.5315 28.195 27.1242 30.2394 24.91 31.3857L24.928 31.424ZM23.1204 19.1579C21.8115 18.5809 20.6681 17.6522 19.8035 16.464C20.7903 14.7184 21.8927 13.0489 23.1024 11.4677L23.1204 19.1579ZM16.6674 29.4083C18.644 31.05 20.8055 32.4265 23.1024 33.5065V37.7098C21.4592 37.0042 20.0095 35.8747 18.8854 34.4246C17.7614 32.9745 16.9988 31.2499 16.6674 29.4083ZM24.91 37.7194V33.497C27.2087 32.4248 29.3707 31.0511 31.345 29.4083C31.0276 31.2569 30.2704 32.9898 29.1446 34.4437C28.0189 35.8977 26.5616 37.025 24.91 37.7194Z" fill="#2D3440"/>
</svg>
